<svg width="68" height="24" viewBox="0 0 68 24" fill="none" xmlns="http://www.w3.org/2000/svg">
<g clip-path="url(#clip0_82_59)">
<path fill-rule="evenodd" clip-rule="evenodd" d="M0 23.0855H67.8135L55.5125 24H0.945338L0 23.0855Z" fill="white"/>
<path fill-rule="evenodd" clip-rule="evenodd" d="M65.1511 0.165924H65.6412C65.7041 0.230561 65.7516 0.308501 65.7803 0.393988C65.8091 0.479474 65.8182 0.570332 65.8071 0.659826C66.1351 6.55179 66.4592 12.2816 66.6251 18.1736C66.7871 18.8296 66.7872 19.3312 67.281 19.6476C67.6052 19.9756 67.9331 19.9756 67.7711 20.4656C67.7711 20.7936 67.6052 20.9556 67.281 21.1177H61.2232C60.7331 21.1177 60.7331 20.9556 60.5672 20.7936C60.4013 20.6315 60.4052 20.4656 60.2392 20.1376L60.0772 16.5376L59.9151 16.0437H54.6753L54.5132 16.2096C54.0267 17.0349 53.6383 17.9142 53.3557 18.8296C53.3557 19.4817 53.3556 19.6476 53.6798 19.9871C54.1736 20.1492 54.0077 20.3112 54.1737 20.6392L53.6798 21.1293H47.7994C47.5842 20.9562 47.4157 20.732 47.3093 20.4772C47.2841 20.1946 47.3404 19.9108 47.4714 19.6592L56.4772 1.81352C56.4772 1.4894 56.8052 1.48941 56.3113 0.995516C56.2258 0.977844 56.146 0.939276 56.0791 0.883274C56.0122 0.827271 55.9601 0.755575 55.9277 0.674569C55.8952 0.593562 55.8833 0.505779 55.893 0.419045C55.9027 0.332312 55.9337 0.249331 55.9833 0.177511L65.1511 0.165924ZM59.0933 5.99228L56.6392 11.6412C56.4772 11.8032 56.4772 11.9691 56.4772 12.2971L59.9151 12.1312C59.9151 9.83924 59.9151 7.54725 59.7492 5.25529C59.4212 5.25529 59.2592 5.58328 59.0933 5.99228V5.99228Z" fill="white"/>
<path fill-rule="evenodd" clip-rule="evenodd" d="M10.0476 0.042421C11.4868 0.138884 14.6778 0.00384521 15.7157 0.00384521C16.8733 0.00384521 18.1698 0.331818 18.8257 0.82185C19.6437 1.4778 19.9833 1.80192 19.9833 3.76977C20.1492 4.74983 19.8212 6.22377 19.4933 7.36975C19.2637 8.32902 18.9339 9.26151 18.5093 10.1518C18.1329 10.8967 17.6954 11.6091 17.2013 12.2817C16.3249 13.0565 15.2463 13.5663 14.0913 13.7518C13.0616 13.8989 12.0209 13.9545 10.9814 13.9177H8.03344L6.7254 19.1537C6.88746 19.4817 6.88747 19.8096 7.05339 19.9756C7.38136 20.1376 7.87138 20.4656 7.5434 20.9556C7.5434 21.1177 7.05337 20.9556 6.7254 21.1177H0.983918C0.493886 21.1177 0.493888 20.9556 0.165914 20.6277C-2.82883e-06 20.4656 0 20.2997 0 19.9756C1.47395 14.0797 2.94791 8.01412 4.24437 1.96782C4.24214 1.84133 4.21191 1.71695 4.15587 1.60354C4.09983 1.49012 4.01936 1.39051 3.92025 1.31189C3.60627 1.1317 3.37199 0.839516 3.26432 0.493885C3.75435 0.00385276 4.08233 0.00384521 4.73828 0.00384521H7.3582C8.25338 0.00384521 9.14084 0.00383579 10.036 0.042421H10.0476ZM10.3138 4.09387L9.0058 9.4958H11.2978C11.8396 9.34129 12.3053 8.99235 12.6058 8.51577C13.0958 7.85982 13.2617 7.20384 13.4238 6.22378C13.4238 5.56783 13.9138 4.74982 12.7717 4.09387H10.3138Z" fill="white"/>
<path fill-rule="evenodd" clip-rule="evenodd" d="M32.4116 0.331814C32.4744 0.395702 32.5219 0.472993 32.5506 0.557852C32.5794 0.642711 32.5885 0.73295 32.5775 0.821854L33.3955 9.66174L33.5575 9.4958C34.7151 6.87972 35.8495 4.42187 36.9955 1.80193C36.9983 1.63344 36.9539 1.46752 36.8673 1.32296C36.7807 1.1784 36.6553 1.06096 36.5054 0.983929C36.3434 0.983929 36.3434 0.821863 36.1775 0.493889C36.3434 0.165915 36.3434 0.165924 36.6675 0.165924H43.8714C43.9591 0.256342 44.0745 0.314731 44.1993 0.331814L44.5273 0.821854L44.6894 18.8296C44.8553 19.1537 45.0174 19.4817 45.1794 19.8097C45.5074 19.9756 45.8353 19.9756 45.8353 20.1376C46.1633 20.4656 46.0013 20.7935 45.6733 21.1177H39.7775C39.4474 20.9842 39.1632 20.7577 38.9595 20.4656C38.7974 20.2997 38.7974 19.9756 38.6315 19.8097V9.33377H38.4694L33.5575 21.1177H28.6495L27.9935 9.66174L27.6656 9.33377L24.7177 18.8296C24.5556 18.9916 24.7177 19.4817 24.8836 19.9871C25.0456 20.3113 25.5395 19.9871 25.3736 20.8051C25.2116 21.1293 25.0456 21.1293 24.7177 21.1293H19.8096C19.4817 21.1293 19.3157 20.9672 19.1537 20.6392C19.0726 20.4886 19.0302 20.3202 19.0302 20.1492C19.0302 19.9781 19.0726 19.8098 19.1537 19.6592C21.2836 13.7634 23.4122 7.87009 25.5395 1.97941C25.5395 1.48938 25.5395 1.32346 25.2116 1.16141C25.0457 0.995489 24.7177 0.83345 24.8836 0.505476C24.889 0.420281 24.9254 0.339991 24.9857 0.279626C25.0461 0.219261 25.1264 0.182965 25.2116 0.177511H31.9215C32.2495 0.177511 32.2495 0.343401 32.4116 0.343401V0.331814Z" fill="white"/>
</g>
<defs>
<clipPath id="clip0_82_59">
<rect width="67.8135" height="24" fill="white"/>
</clipPath>
</defs>
</svg>
